<?xml version="1.0" encoding="UTF-8"?>
<svg id="_レイヤー_1" xmlns="http://www.w3.org/2000/svg" version="1.1" viewBox="0 0 145 42">
  <!-- Generator: Adobe Illustrator 29.3.1, SVG Export Plug-In . SVG Version: 2.1.0 Build 151)  -->
  <defs>
    <style>
      .st0 {
        fill: #005dff;
      }
    </style>
  </defs>
  <g>
    <path class="st0" d="M9.3688057,18.6164346c-.6588781.6592666-.6588781,1.7281913,0,2.3874596.3302177.3298292.761682.4945471,1.193924.4945471s.8644849-.1647195,1.193924-.4941586l9.5552895-9.5548993c.6588781-.6592675.6588781-1.7281921,0-2.3874587-.6604354-.6596568-1.7289699-.6592675-2.387848-.0003893,0,0-9.5552886,9.5548993-9.5552895,9.5548993Z"/>
    <path class="st0" d="M28.4723746,23.3835659c.6588781-.6592683.6588781-1.7281913,0-2.3874596-.6604354-.6596568-1.7289699-.6592666-2.387848-.0003902l-9.5552886,9.5549002c-.6588781.6592666-.6588781,1.7281913,0,2.3874579.3302177.3298275.761682.4945488,1.1939249.4945488s.8644858-.1647178,1.1939249-.4941569c0,0,9.5552903-9.5548985,9.5552869-9.5549002Z"/>
    <path class="st0" d="M33.2457366,16.2219658c-3.2912763-3.2897174-8.6432957-3.2897174-11.9345702,0l-7.1682192,7.1682192c-1.9727397,1.9735183-5.1853542,1.9750772-7.1596519,0-1.9742978-1.9739084-1.9742978-5.1853542,0-7.1592626l11.9415786-11.9419696c.6588781-.6596568.6588781-1.7285814,0-2.3878487-.6604354-.6588779-1.7289699-.6588779-2.387848,0L4.5954464,13.8430743c-3.290496,3.290496-3.290496,8.6444644,0,11.9349604,1.5942354,1.5938478,3.713393,2.4715717,5.9680637,2.4715717,2.2538921,0,4.3730489-.8777239,5.9672851-2.4715717l7.1682192-7.1682192c1.9735183-1.9742969,5.1853559-1.9742969,7.1588725,0,1.9742969,1.9735183,1.9742969,5.1857443,0,7.1596528l-11.9415794,11.9415794c-.6588781.6596585-.6588781,1.7281913,0,2.3878497.3294391.3294391.761682.4941569,1.1939249.4941569s.8644858-.1647178,1.1939249-.4941569l11.9415794-11.9419679c3.2897157-3.290496,3.2897157-8.6444627,0-11.9349638Z"/>
  </g>
  <g>
    <path d="M50.435753,15.2895296c0-2.3855122,2.2406532-3.9034242,4.9151065-3.9034242,2.9275681,0,5.132395,1.8072415,5.132395,4.1923653h3.3613683c0-4.0837193-3.6503094-7.155758-8.4213338-7.155758-4.6261654,0-8.3847306,2.7827083-8.3847306,7.1199317,0,8.4933748,13.8784962,5.8185314,13.8784962,11.6012364,0,2.4579417-2.3855122,4.1203242-5.3489066,4.1203242-3.1448566,0-5.6020215-1.9517121-5.6020215-4.5175194h-3.3613683c0,4.2285783,3.8309947,7.4813023,8.9267865,7.4813023,4.8792802,0,8.7827044-2.9275681,8.7827044-7.4454777,0-8.6378437-13.8784962-5.746492-13.8784962-11.4929806Z"/>
    <path d="M84.2581576,28.9511224v-6.5416627c0-4.5179096-2.9992207-7.481304-7.481304-7.481304-2.8909649,0-5.2040476,1.1927561-6.650307,3.3251535V7.7720083h-3.1082534v26.0221762h3.1082534v-10.336441c0-3.3251535,2.2414301-5.5299804,5.6386247-5.5299804,3.2889387,0,5.3847329,2.1686121,5.3847329,5.4575509v6.2165052c0,2.7106681,1.8290971,4.1923653,4.3372243,4.1923653.7894734,0,1.3762628-.0718468,1.8322116-.1665681-.8327008-.8840516-1.5358762-1.8983134-2.0859125-3.0194203-.608938-.2782791-.97527-.864922-.97527-1.6570737Z"/>
    <path d="M106.539778,28.9511224v-13.5891633h-3.1082534v3.3247633c-1.5537383-2.3130827-4.0841095-3.7585635-7.1557597-3.7585635-5.277254,0-9.2165045,4.1561505-9.2165045,9.6499145,0,5.4933755,3.9392505,9.6499145,9.2165045,9.6499145,3.1082534,0,5.6736741-1.4820857,7.2281892-3.8309947.2889411,2.2044384,1.7710268,3.3971946,4.2647948,3.3971946h.975856v-2.9996092h-.3613706c-1.1207151,0-1.8434563-.7231297-1.8434563-1.8434563ZM96.8536539,31.2279903c-3.7951684,0-6.6137038-2.8551386-6.6137038-6.6499168s2.8185354-6.650307,6.6137038-6.650307c3.7585652,0,6.5778775,2.8555271,6.5778775,6.650307s-2.8193123,6.6499168-6.5778775,6.6499168Z"/>
    <path d="M122.8494876,15.1666233c-.399439-.0553938-.8984584-.0939938-1.5582702-.0939938-2.7662101,0-5.2048245,1.4096562-6.613697,3.7947799v-3.5054487h-3.1082534v18.4322304h3.1082534v-9.2523291c0-3.4943505,2.1196466-5.84803,5.671282-6.1998102.6574129-1.193487,1.5071988-2.2585169,2.5006852-3.1754286Z"/>
    <path d="M141.5418472,24.5780735c0-5.4937656-4.1923653-9.6499145-9.7943799-9.6499145-5.5654182,0-9.7943799,4.1561505-9.7943799,9.6499145,0,5.4933755,4.2289753,9.6499145,9.9034195,9.6499145,4.3364474,0,7.9150973-2.3855122,9.3605798-5.9275658h-3.4696241c-1.0482924,1.8434563-3.2889319,3.0724271-5.8551363,3.0724271-3.4696241,0-6.0716479-2.2410417-6.613697-5.4937656h16.1915789c.0358195-.3975854.0716526-.8672118.0716526-1.3010119l-.0000136.0000017ZM125.3144488,23.0963763c.6144922-3.1444682,3.1440729-5.3130803,6.4330185-5.3130803,3.3613751,0,5.9633853,2.2406532,6.505448,5.3130803h-12.9384665Z"/>
  </g>
</svg>